<svg xmlns="http://www.w3.org/2000/svg" xmlns:xlink="http://www.w3.org/1999/xlink" version="1.1" id="logo_IMT_azul" x="0px" y="0px" viewBox="0 0 237.3 89.8" style="enable-background:new 0 0 237.3 89.8;" xml:space="preserve">
<style type="text/css">
	.st0{fill:#00A0DF;}
</style>
<g>
	<path d="M82.9,27l-1.1-2.2c5.1,1.2,10.2,2.6,15.3,4l-0.8,1.8l-5.8,12.1L82.9,27z M22.1,65.6V15.9c3.2,0.2,6.5,0.4,9.7,0.7v49h20.7   L52,20.9l0-2c1.8,0.3,3.6,0.5,5.4,0.8l1.1,2.1l23.1,43.6h17.5l15.6-29.3l0.9-1.7c4.3,1.5,8.5,3,12.8,4.6l0,2.1l-0.2,24.4h20.7V47.7   c12,5.4,23.9,11.4,35.6,17.9h22.1v-4.5c-7.3-4-14.7-7.9-22.1-11.5c-11.8-5.7-23.6-10.9-35.6-15.5c-6.8-2.6-13.5-4.9-20.3-7.1   c-2.6-0.8-5.1-1.6-7.7-2.3c-6.4-1.9-12.9-3.5-19.4-5c-8-1.8-16.1-3.3-24.2-4.5c-15.1-2.2-30.3-3.2-45.5-2.9   c-3.2,0.1-6.4,0.2-9.7,0.3C14.8,13.1,7.4,13.8,0,14.8v50.8H22.1z"/>
	<path d="M31.8,10.4c14.9-0.2,29.7,0.7,44.5,2.7L69.9,0H31.8V10.4z M102.3,18c6.5,1.5,13,3.2,19.5,5.1l3.5-6.5h3.4l-0.1,8.6   c6.8,2.1,13.6,4.5,20.3,7V0H111L102.3,18z M0,12.8c7.4-1,14.8-1.7,22.1-2V0H0V12.8z"/>
	<path d="M184.4,47.5c7.4,3.6,14.8,7.4,22.1,11.4V16.7h30.7V0h-83.6v16.7h30.7L184.4,47.5z"/>
	<path class="st0" d="M148.9,47.7c12,5.4,23.9,11.4,35.6,17.9h22.1v-4.5c-7.3-4-14.7-7.9-22.1-11.5c-11.8-5.7-23.6-10.9-35.6-15.5   c-6.8-2.6-13.5-4.9-20.3-7.1c-2.6-0.8-5.1-1.6-7.7-2.3c-6.4-1.9-12.9-3.6-19.4-5c-8-1.8-16.1-3.3-24.2-4.5   c-15.1-2.2-30.3-3.2-45.5-2.9c-3.2,0.1-6.4,0.2-9.7,0.3C14.8,13.1,7.4,13.8,0,14.8l22.1,1.1c3.2,0.2,6.5,0.4,9.7,0.7L52,19   c1.8,0.3,3.6,0.5,5.4,0.8C68.3,21.6,79.1,24,89.7,27c15.7,4.6,25.9,7.6,25.9,7.6c4.3,1.5,8.5,3,12.8,4.6L148.9,47.7z"/>
	<path d="M3.2,73.3c0.2,0,0.4,0.1,0.5,0.4c0,0,0,0,0,0c0,0,0,0.1,0,0.1v2.1c0,0.2-0.1,0.4-0.4,0.5c0,0,0,0,0,0c0,0-0.1,0-0.1,0H0.6   c-0.2,0-0.4-0.1-0.5-0.4c0,0,0-0.1,0-0.1v-2.1c0-0.2,0.1-0.4,0.4-0.5c0,0,0,0,0,0c0,0,0.1,0,0.1,0L3.2,73.3z M3.1,77.6   c0.2,0,0.4,0.1,0.5,0.4c0,0,0,0,0,0c0,0,0,0.1,0,0.1v11.1c0,0.3-0.1,0.5-0.5,0.5H0.6c-0.3,0-0.4-0.1-0.4-0.5V78   c0-0.2,0.1-0.4,0.4-0.5c0,0,0.1,0,0.1,0H3.1z"/>
	<path d="M5.8,81.8c0-2.6,0.7-4.5,4.9-4.5c4.2,0,4.8,1.9,4.8,4.5v7.4c0,0.2-0.1,0.4-0.3,0.4c0,0,0,0-0.1,0h-2.5   c-0.3,0-0.4-0.2-0.4-0.4v-7.2c0-1.4-0.5-1.7-1.5-1.7c-1,0-1.6,0.3-1.6,1.7v7.2c0,0.2-0.1,0.4-0.3,0.4c0,0,0,0-0.1,0H6.2   c-0.2,0-0.4-0.1-0.4-0.3c0,0,0,0,0-0.1V81.8z"/>
	<path d="M19.8,75c0.5,0,0.6,0.2,0.7,0.6l0.3,1.5c0.1,0.4,0.2,0.5,0.6,0.5h1.9c0.2,0,0.4,0.1,0.5,0.4c0,0,0,0.1,0,0.1v2   c0,0.2-0.1,0.4-0.4,0.5c0,0,0,0,0,0c0,0-0.1,0-0.1,0h-2.1c-0.1,0-0.3,0.1-0.3,0.2c0,0,0,0,0,0c0,0,0,0,0,0v4.7   c0,0.6,0.2,1.3,1.5,1.3c0.8,0,1-0.1,1.3-0.1c0.2,0,0.3,0.2,0.3,0.4l0.2,1.8c0,0.4-0.1,0.6-0.5,0.7c-0.6,0.2-1.3,0.3-1.9,0.3   c-3.5,0-4.3-1.5-4.3-4V75.4c0-0.2,0.1-0.4,0.4-0.4c0,0,0,0,0,0L19.8,75z"/>
	<path d="M33.9,88.2c0.1,0.4-0.1,0.9-0.5,1.1c-1.1,0.4-2.3,0.6-3.4,0.5c-3.6,0-5.2-1.6-5.2-6.2c0-4.7,1.8-6.2,5.1-6.2   c3.1,0,4.6,1.7,4.6,4.9v1c0,1.3-0.6,1.8-1.8,1.8h-4.3c-0.1,0-0.2,0-0.2,0.2v0.1c0,1,0.5,1.6,2.2,1.6c0.9-0.1,1.9-0.2,2.8-0.4   c0.3,0,0.5,0.2,0.5,0.4L33.9,88.2z M31.2,82.6c0.2,0,0.2-0.1,0.2-0.2c0-1.6-0.6-2.1-1.6-2.1c-1.1,0-1.8,0.5-1.8,2.1   c0,0.2,0.1,0.2,0.2,0.2H31.2z"/>
	<path d="M36.1,81.2c0-2.9,1-3.8,3.3-3.8c0.9,0,1.8,0.1,2.7,0.3c0.6,0.2,0.7,0.4,0.6,1.1L42.4,80c0,0.3-0.2,0.5-0.5,0.5   c-0.4,0-1-0.1-1.6-0.1c-0.8,0-1,0.3-1,1.2v7.6c0,0.2-0.2,0.4-0.4,0.4h-2.5c-0.2,0-0.4-0.1-0.4-0.3v0L36.1,81.2z"/>
	<path d="M43.7,81.4c0-2.3,1.1-4,4-4c2.1,0,2.8,0.6,3.5,1.4c0.1,0.2,0.2,0.1,0.3,0c0.5-0.8,1.6-1.4,3.5-1.4c2.9,0,4,1.8,4,4v7.8   c0,0.2-0.1,0.4-0.4,0.5c0,0,0,0,0,0c0,0-0.1,0-0.1,0h-2.4c-0.2,0-0.4-0.1-0.5-0.4c0,0,0,0,0,0c0,0,0-0.1,0-0.1v-7.1   c0-1.2-0.3-1.7-1.3-1.7c-0.8,0-1.3,0.3-1.3,1.6v7.2c0,0.2-0.1,0.4-0.4,0.5c0,0,0,0,0,0c0,0-0.1,0-0.1,0h-2.4   c-0.2,0-0.4-0.1-0.5-0.4c0,0,0,0,0,0c0,0,0-0.1,0-0.1V82c0-1.3-0.5-1.6-1.3-1.6c-1,0-1.3,0.5-1.3,1.7v7.1c0,0.2-0.1,0.4-0.4,0.5   c0,0,0,0,0,0c0,0-0.1,0-0.1,0h-2.4c-0.2,0-0.4-0.1-0.5-0.4c0,0,0,0,0,0c0,0,0-0.1,0-0.1V81.4z"/>
	<path d="M70.6,83.5c0,4.7-1.3,6.3-5,6.3c-3.8,0-5-1.6-5-6.3c0-4.6,1.3-6.2,5-6.2C69.3,77.4,70.6,79,70.6,83.5 M63.9,83.5   c0,2.6,0.3,3.3,1.7,3.3c1.3,0,1.6-0.7,1.6-3.3c0-2.5-0.3-3.2-1.6-3.2S63.9,81,63.9,83.5"/>
	<path d="M81,73.3c0.2,0,0.4,0.1,0.5,0.4c0,0,0,0.1,0,0.1v10.7c0,3.5-1.3,5.3-4.8,5.3c-3.9,0-5-2.2-5-6.2c0-4.7,1.4-6.2,4.2-6.2   c0.7,0,1.4,0.2,2.1,0.4c0.1,0,0.2-0.1,0.2-0.3v-3.8c0-0.2,0.1-0.4,0.4-0.5c0,0,0,0,0,0c0,0,0.1,0,0.1,0L81,73.3z M78.3,81.9   c0-1.2-0.7-1.5-1.6-1.5c-1.3,0-1.8,0.5-1.8,3.2c0,2.6,0.5,3.1,1.8,3.1c1.1,0,1.5-0.5,1.5-2L78.3,81.9z"/>
	<path d="M83.7,78.8c-0.1-0.4,0-0.7,0.4-0.9c1.2-0.4,2.4-0.6,3.7-0.6c3.1,0,4.7,1,4.7,4.5v7.4c0,0.2-0.2,0.4-0.4,0.4h-1.6   c-0.3,0-0.4-0.1-0.5-0.3l-0.3-0.8c0,0-0.1-0.1-0.1-0.1c-0.3,0-0.8,1.3-3.2,1.3c-2.5,0-3.4-1.3-3.4-4c0-2.6,1.1-3.7,4.1-3.7h1.7   c0.3,0,0.4-0.1,0.4-0.4c0-1-0.3-1.5-1.7-1.5c-1.1,0.1-2.1,0.2-3.1,0.4c-0.3,0-0.4-0.2-0.5-0.5L83.7,78.8z M87.9,84.6   c-1.4,0-1.7,0.2-1.7,1.1c0,0.9,0.3,1.3,1.3,1.3c0.9,0.1,1.6-0.6,1.7-1.5c0-0.1,0-0.1,0-0.2v-0.6c0-0.1-0.1-0.2-0.2-0.3   c0,0,0,0-0.1,0H87.9z"/>
	<path d="M95.3,73.3h2.3c0.3,0,0.5,0.2,0.5,0.5v15.3c0,0.3-0.2,0.5-0.5,0.5h-2.3c-0.3,0-0.5-0.2-0.5-0.5V73.8   C94.8,73.5,95,73.3,95.3,73.3C95.3,73.3,95.3,73.3,95.3,73.3L95.3,73.3z"/>
	<path d="M102.7,75c0.5,0,0.6,0.2,0.7,0.6l0.3,1.5c0.1,0.4,0.2,0.5,0.6,0.5h1.9c0.2,0,0.4,0.1,0.5,0.4c0,0,0,0.1,0,0.1v2   c0,0.2-0.1,0.4-0.4,0.5c0,0,0,0,0,0c0,0-0.1,0-0.1,0H104c-0.1,0-0.3,0.1-0.3,0.2c0,0,0,0,0,0c0,0,0,0,0,0v4.7   c0,0.6,0.2,1.3,1.5,1.3c0.8,0,1-0.1,1.3-0.1c0.2,0,0.3,0.2,0.3,0.4l0.2,1.8c0,0.4-0.1,0.6-0.5,0.7c-0.6,0.2-1.3,0.3-1.9,0.3   c-3.5,0-4.3-1.5-4.3-4V75.4c0-0.2,0.1-0.4,0.4-0.4c0,0,0,0,0,0L102.7,75z"/>
	<path d="M116.7,88.2c0.1,0.4-0.1,0.9-0.5,1.1c-1.1,0.4-2.3,0.6-3.4,0.5c-3.6,0-5.2-1.6-5.2-6.2c0-4.7,1.8-6.2,5.1-6.2   c3.1,0,4.6,1.7,4.6,4.9v1c0,1.3-0.6,1.8-1.8,1.8h-4.3c-0.1,0-0.2,0-0.2,0.2v0.1c0,1,0.5,1.6,2.2,1.6c0.9-0.1,1.9-0.2,2.8-0.4   c0.3,0,0.5,0.2,0.5,0.4L116.7,88.2z M114,82.6c0.2,0,0.2-0.1,0.2-0.2c0-1.6-0.6-2.1-1.6-2.1c-1.1,0-1.8,0.5-1.8,2.1   c0,0.2,0.1,0.2,0.2,0.2H114z"/>
	<path d="M119.6,73.3h2.3c0.3,0,0.5,0.2,0.5,0.5v15.3c0,0.3-0.2,0.5-0.5,0.5h-2.3c-0.3,0-0.5-0.2-0.5-0.5V73.8   C119.1,73.5,119.3,73.3,119.6,73.3C119.6,73.3,119.6,73.3,119.6,73.3L119.6,73.3z"/>
	<path d="M133.4,88.2c0.1,0.4-0.1,0.9-0.5,1.1c-1.1,0.4-2.3,0.6-3.4,0.5c-3.6,0-5.2-1.6-5.2-6.2c0-4.7,1.8-6.2,5.1-6.2   c3.1,0,4.6,1.7,4.6,4.9v1c0,1.3-0.6,1.8-1.8,1.8h-4.3c-0.1,0-0.2,0-0.2,0.2v0.1c0,1,0.5,1.6,2.2,1.6c0.9-0.1,1.9-0.2,2.8-0.4   c0.3,0,0.5,0.2,0.5,0.4L133.4,88.2z M130.7,82.6c0.2,0,0.2-0.1,0.2-0.2c0-1.6-0.6-2.1-1.6-2.1c-1.1,0-1.8,0.5-1.8,2.1   c0,0.2,0.1,0.2,0.2,0.2H130.7z"/>
	<path d="M135.6,81.4c0-2.3,1.1-4,4-4c2.1,0,2.8,0.6,3.5,1.4c0.1,0.2,0.2,0.1,0.3,0c0.5-0.8,1.6-1.4,3.5-1.4c2.9,0,4,1.8,4,4v7.8   c0,0.2-0.1,0.4-0.4,0.5c0,0,0,0,0,0c0,0-0.1,0-0.1,0H148c-0.2,0-0.4-0.1-0.5-0.4c0,0,0,0,0,0c0,0,0-0.1,0-0.1v-7.1   c0-1.2-0.3-1.7-1.3-1.7c-0.8,0-1.3,0.3-1.3,1.6v7.2c0,0.2-0.1,0.4-0.4,0.5c0,0,0,0,0,0c0,0-0.1,0-0.1,0H142c-0.2,0-0.4-0.1-0.5-0.4   c0,0,0,0,0,0c0,0,0-0.1,0-0.1V82c0-1.3-0.5-1.6-1.3-1.6c-1,0-1.3,0.5-1.3,1.7v7.1c0,0.2-0.1,0.4-0.4,0.5c0,0,0,0,0,0   c0,0-0.1,0-0.1,0H136c-0.2,0-0.4-0.1-0.5-0.4c0,0,0,0,0,0c0,0,0-0.1,0-0.1V81.4z"/>
	<path d="M153,78.8c-0.1-0.4,0-0.7,0.4-0.9c1.2-0.4,2.4-0.6,3.7-0.6c3.1,0,4.7,1,4.7,4.5v7.4c0,0.2-0.2,0.4-0.4,0.4h-1.6   c-0.3,0-0.4-0.1-0.5-0.3l-0.3-0.8c0,0-0.1-0.1-0.1-0.1c-0.3,0-0.8,1.3-3.2,1.3c-2.5,0-3.4-1.3-3.4-4c0-2.6,1.1-3.7,4.1-3.7h1.6   c0.3,0,0.4-0.1,0.4-0.4c0-1-0.3-1.5-1.7-1.5c-1.1,0.1-2.1,0.2-3.1,0.4c-0.3,0-0.4-0.2-0.5-0.5L153,78.8z M157.3,84.6   c-1.4,0-1.7,0.2-1.7,1.1c0,0.9,0.3,1.3,1.3,1.3c0.9,0.1,1.6-0.6,1.7-1.5c0-0.1,0-0.1,0-0.2v-0.6c0-0.1-0.1-0.2-0.2-0.3   c0,0,0,0-0.1,0H157.3z"/>
	<path d="M166.1,75c0.5,0,0.6,0.2,0.7,0.6l0.3,1.5c0.1,0.4,0.2,0.5,0.6,0.5h1.9c0.2,0,0.4,0.1,0.5,0.4c0,0,0,0.1,0,0.1v2   c0,0.2-0.1,0.4-0.4,0.5c0,0,0,0,0,0c0,0-0.1,0-0.1,0h-2.1c-0.1,0-0.3,0.1-0.3,0.2c0,0,0,0,0,0c0,0,0,0,0,0v4.7   c0,0.6,0.2,1.3,1.5,1.3c0.8,0,1-0.1,1.3-0.1c0.2,0,0.3,0.2,0.3,0.4l0.2,1.8c0,0.4-0.1,0.6-0.5,0.7c-0.6,0.2-1.3,0.3-1.9,0.3   c-3.5,0-4.3-1.5-4.3-4V75.4c0-0.2,0.1-0.4,0.4-0.4c0,0,0,0,0,0c0,0,0,0,0,0L166.1,75z"/>
	<path d="M174.9,73.3c0.2,0,0.4,0.1,0.5,0.4c0,0,0,0,0,0c0,0,0,0.1,0,0.1v2.1c0,0.2-0.1,0.4-0.4,0.5c0,0,0,0,0,0c0,0-0.1,0-0.1,0   h-2.6c-0.2,0-0.4-0.1-0.5-0.4c0,0,0,0,0,0c0,0,0-0.1,0-0.1v-2.1c0-0.2,0.1-0.4,0.4-0.5c0,0,0,0,0,0c0,0,0.1,0,0.1,0L174.9,73.3z    M174.8,77.6c0.2,0,0.4,0.1,0.5,0.4c0,0,0,0.1,0,0.1v11.1c0,0.3-0.1,0.5-0.5,0.5h-2.5c-0.3,0-0.4-0.1-0.4-0.5V78   c0-0.2,0.1-0.4,0.4-0.5c0,0,0.1,0,0.1,0H174.8z"/>
	<path d="M185,88.5c0.1,0.4-0.1,0.8-0.5,1c-0.9,0.2-1.9,0.4-2.9,0.3c-3.4,0-4.7-1.7-4.7-6.3c0-4.6,1.3-6.2,4.5-6.2   c1.1,0,2.1,0.2,3.1,0.5c0.4,0.1,0.6,0.5,0.5,1l-0.2,1.6c0,0.3-0.2,0.4-0.4,0.4c-0.7-0.2-1.5-0.4-2.2-0.4c-1.3,0-1.8,0.4-1.8,3.2   s0.6,3.2,1.9,3.2c0.8,0,1.8-0.2,2.1-0.2c0.2,0,0.3,0.1,0.4,0.4L185,88.5z"/>
	<path d="M188.3,84.1c-1.5-0.5-2.4-1.9-2.3-3.4c0-2.5,1.5-3.4,4.4-3.4c1.1,0,2.2,0.1,3.3,0.4c0.3,0.1,0.4,0.4,0.3,0.7l-0.2,1.4   c0,0.3-0.1,0.5-0.5,0.5c-0.5,0-1.6-0.2-2.6-0.2c-0.9,0-1.4,0.2-1.4,0.8c0,0.7,0.7,0.9,1.7,1.3l1.1,0.5c1.5,0.4,2.4,1.9,2.3,3.4   c0,2.5-1.4,3.8-4.8,3.8c-1,0-2-0.1-2.9-0.3c-0.3-0.1-0.6-0.4-0.5-0.7v0l0.2-1.7c0-0.2,0.1-0.3,0.3-0.3h0c0.4,0,1.3,0.2,2.6,0.2   c1.4,0,1.7-0.3,1.7-0.9c0-0.6-0.4-0.8-1.3-1.2L188.3,84.1z"/>
	<path d="M199,85.4c0.2,0,0.4,0.1,0.4,0.3c0,0,0,0,0,0c0,0,0,0,0,0v3.4c0,0.2-0.2,0.4-0.4,0.4c0,0,0,0,0,0h-2.5   c-0.2,0-0.4-0.1-0.4-0.3c0,0,0,0,0,0c0,0,0,0,0,0v-3.4c0-0.2,0.2-0.4,0.4-0.4c0,0,0,0,0,0H199z"/>
	<path d="M209.2,88.5c0.1,0.4-0.1,0.8-0.5,1c-0.9,0.2-1.9,0.4-2.9,0.3c-3.4,0-4.7-1.7-4.7-6.3c0-4.6,1.3-6.2,4.5-6.2   c1.1,0,2.1,0.2,3.1,0.5c0.4,0.1,0.6,0.5,0.5,1l-0.2,1.6c0,0.3-0.2,0.4-0.4,0.4c-0.7-0.2-1.5-0.4-2.2-0.4c-1.3,0-1.8,0.4-1.8,3.2   s0.6,3.2,1.9,3.2c0.8,0,1.8-0.2,2.1-0.2c0.2,0,0.3,0.1,0.4,0.4L209.2,88.5z"/>
	<path d="M220.4,83.5c0,4.7-1.3,6.3-5,6.3c-3.8,0-5-1.6-5-6.3c0-4.6,1.3-6.2,5-6.2C219.1,77.4,220.4,79,220.4,83.5 M213.7,83.5   c0,2.6,0.3,3.3,1.7,3.3c1.3,0,1.6-0.7,1.6-3.3c0-2.5-0.3-3.2-1.6-3.2S213.7,81,213.7,83.5"/>
	<path d="M222,81.4c0-2.3,1.1-4,4-4c2.1,0,2.8,0.6,3.5,1.4c0.1,0.2,0.2,0.1,0.3,0c0.5-0.8,1.6-1.4,3.5-1.4c2.9,0,4,1.8,4,4v7.8   c0,0.2-0.1,0.4-0.4,0.5c0,0,0,0,0,0c0,0-0.1,0-0.1,0h-2.4c-0.2,0-0.4-0.1-0.5-0.4c0,0,0,0,0,0c0,0,0-0.1,0-0.1v-7.1   c0-1.2-0.3-1.7-1.3-1.7c-0.8,0-1.3,0.3-1.3,1.6v7.2c0,0.2-0.1,0.4-0.4,0.5c0,0,0,0,0,0c0,0-0.1,0-0.1,0h-2.4   c-0.2,0-0.4-0.1-0.5-0.4c0,0,0,0,0,0c0,0,0-0.1,0-0.1V82c0-1.3-0.5-1.6-1.3-1.6c-1,0-1.3,0.5-1.3,1.7v7.1c0,0.2-0.1,0.4-0.4,0.5   c0,0,0,0,0,0c0,0-0.1,0-0.1,0h-2.4c-0.2,0-0.4-0.1-0.5-0.4c0,0,0,0,0,0c0,0,0-0.1,0-0.1L222,81.4z"/>
</g>
</svg>